<?xml version="1.0" standalone="no"?>
<!DOCTYPE svg PUBLIC "-//W3C//DTD SVG 20010904//EN"
 "http://www.w3.org/TR/2001/REC-SVG-20010904/DTD/svg10.dtd">
<svg version="1.0" xmlns="http://www.w3.org/2000/svg"
 width="512.000000pt" height="512.000000pt" viewBox="0 0 512.000000 512.000000"
 preserveAspectRatio="xMidYMid meet">

<g transform="translate(0.000000,512.000000) scale(0.100000,-0.100000)"
fill="#000000" stroke="none">
<path d="M3023 5108 c-25 -12 -39 -44 -48 -113 -4 -27 -17 -72 -29 -100 -45
-99 -151 -176 -261 -190 -71 -9 -101 -23 -114 -51 -16 -37 -14 -60 12 -89 17
-21 36 -28 91 -36 165 -23 283 -139 301 -297 11 -94 51 -133 115 -111 36 13
60 54 60 103 0 142 164 306 306 306 49 0 90 24 103 60 22 64 -17 104 -111 115
-158 18 -274 136 -297 301 -8 55 -15 74 -36 92 -28 24 -57 27 -92 10z m105
-425 l68 -68 -66 -65 -66 -66 -67 67 -66 67 62 65 c34 35 63 65 65 66 1 0 33
-29 70 -66z"/>
<path d="M4539 5022 c-35 -18 -39 -28 -59 -132 -14 -79 -48 -137 -107 -190
-48 -42 -135 -80 -184 -80 -74 0 -129 -51 -114 -107 9 -39 41 -57 120 -70 42
-7 93 -22 113 -32 88 -45 165 -154 177 -251 10 -76 14 -89 37 -110 29 -26 71
-25 103 3 20 17 28 36 35 84 16 120 86 225 179 273 22 11 73 25 113 32 44 7
82 19 95 31 66 58 13 147 -88 147 -50 0 -137 40 -188 86 -59 53 -99 129 -108
205 -8 71 -26 104 -62 117 -23 8 -36 7 -62 -6z m140 -519 c-40 -34 -99 -96
-99 -105 0 -4 -31 25 -69 64 l-69 70 67 66 66 67 68 -68 67 -68 -31 -26z"/>
<path d="M3766 4508 c-20 -18 -28 -38 -35 -90 -12 -88 -40 -147 -94 -202 -58
-58 -109 -83 -197 -97 -90 -15 -120 -37 -120 -88 0 -54 30 -78 113 -90 83 -12
147 -43 203 -98 54 -55 83 -115 95 -200 12 -83 35 -113 90 -113 51 0 73 30 88
120 14 88 39 139 97 197 55 54 114 82 202 94 77 10 112 39 112 90 0 47 -37 76
-106 84 -165 18 -290 143 -309 309 -11 97 -78 137 -139 84z m125 -418 c39 -38
67 -70 62 -70 -12 0 -81 -65 -109 -102 l-21 -27 -69 68 -69 68 65 66 c36 36
66 66 67 66 1 1 34 -30 74 -69z"/>
<path d="M73 4256 l-28 -24 -3 -436 -3 -436 86 0 85 0 0 375 0 375 378 2 377
3 3 83 3 82 -435 0 -435 0 -28 -24z"/>
<path d="M1936 3845 c-52 -18 -106 -64 -133 -111 -12 -21 -50 -152 -85 -291
l-63 -253 -396 0 c-228 0 -419 -4 -450 -10 -176 -34 -311 -171 -339 -346 -13
-78 -13 -1899 0 -1977 25 -156 138 -285 291 -335 50 -16 168 -17 1799 -17
1631 0 1749 1 1799 17 153 50 266 179 291 335 13 78 13 1899 0 1977 -28 175
-163 312 -339 346 -31 6 -222 10 -450 10 l-396 0 -63 253 c-35 139 -73 270
-85 292 -27 47 -94 100 -145 115 -24 6 -247 10 -617 10 -467 -1 -588 -4 -619
-15z m1218 -177 c22 -20 35 -63 91 -288 80 -324 81 -327 108 -343 16 -9 144
-13 492 -17 l470 -5 48 -28 c56 -33 99 -89 116 -149 9 -32 11 -291 9 -1013 -3
-910 -4 -972 -21 -1006 -24 -47 -71 -95 -121 -122 l-41 -22 -1745 0 -1745 0
-41 22 c-50 27 -97 75 -121 122 -17 34 -18 96 -21 1006 -2 722 0 981 9 1013
17 60 60 116 116 149 l48 28 470 5 c348 4 476 8 492 17 27 16 28 19 108 343
56 225 69 268 91 288 l25 22 569 0 569 0 25 -22z"/>
<path d="M825 2825 l-25 -24 0 -241 0 -241 25 -24 24 -25 244 0 244 0 24 26
24 26 0 238 0 238 -24 26 -24 26 -244 0 -244 0 -24 -25z m390 -265 l0 -125
-122 -3 -123 -3 0 131 0 131 123 -3 122 -3 0 -125z"/>
<path d="M2410 2843 c-230 -45 -390 -126 -548 -278 -319 -304 -398 -784 -196
-1176 137 -265 370 -448 664 -522 121 -30 339 -30 460 0 114 29 233 80 321
139 538 358 610 1117 147 1559 -96 93 -167 142 -281 195 -134 63 -220 81 -392
85 -82 2 -161 1 -175 -2z m330 -179 c302 -66 538 -289 625 -589 82 -284 8
-585 -198 -802 -163 -171 -374 -263 -607 -263 -554 0 -958 535 -805 1065 124
429 551 684 985 589z"/>
<path d="M2485 2514 c-11 -2 -45 -9 -75 -15 -86 -17 -226 -89 -297 -154 -302
-274 -294 -749 18 -1012 123 -103 262 -153 429 -153 167 0 306 50 429 153 312
263 320 739 18 1012 -67 61 -188 127 -277 150 -57 16 -210 27 -245 19z m190
-180 c228 -59 385 -256 385 -483 0 -139 -50 -260 -146 -357 -103 -102 -209
-146 -354 -146 -145 0 -251 44 -354 146 -96 97 -146 218 -146 357 0 317 312
562 615 483z"/>
<path d="M42 484 l3 -436 28 -24 28 -24 435 0 435 0 -3 83 -3 82 -377 3 -378
2 0 375 0 375 -85 0 -86 0 3 -436z"/>
<path d="M4910 545 l0 -375 -377 -2 -378 -3 -3 -82 -3 -83 435 0 435 0 28 24
28 24 3 436 3 436 -86 0 -85 0 0 -375z"/>
</g>
</svg>
