<?xml version="1.0" standalone="no"?>
<!DOCTYPE svg PUBLIC "-//W3C//DTD SVG 20010904//EN"
 "http://www.w3.org/TR/2001/REC-SVG-20010904/DTD/svg10.dtd">
<svg version="1.0" xmlns="http://www.w3.org/2000/svg"
 width="512.000000pt" height="512.000000pt" viewBox="0 0 512.000000 512.000000"
 preserveAspectRatio="xMidYMid meet">

<g transform="translate(0.000000,512.000000) scale(0.100000,-0.100000)"
fill="#000000" stroke="none">
<path d="M626 4949 c-62 -15 -153 -68 -197 -116 -22 -24 -55 -74 -72 -111
l-32 -67 0 -2096 0 -2095 37 -76 c45 -91 103 -147 196 -191 l67 -32 1536 0
1536 0 79 40 c44 22 79 45 79 52 0 6 -22 37 -48 67 l-48 56 -27 -18 c-15 -11
-42 -24 -61 -30 -50 -18 -2967 -17 -3025 0 -55 16 -138 99 -154 154 -18 60
-18 4088 0 4148 16 55 99 138 154 154 32 9 340 12 1298 12 l1256 0 0 -216 c0
-257 5 -279 75 -349 70 -70 92 -75 349 -75 l216 0 0 -320 0 -320 80 0 80 0 0
377 0 378 -343 342 -342 343 -1325 -1 c-758 -1 -1342 -5 -1364 -10z m2919
-449 l180 -180 -158 0 c-154 0 -158 1 -182 25 -24 24 -25 28 -25 180 0 85 1
155 3 155 1 0 83 -81 182 -180z"/>
<path d="M2080 4440 c0 -30 -4 -40 -16 -40 -77 0 -189 -88 -212 -166 -28 -94
-8 -169 63 -239 63 -64 100 -75 244 -75 105 0 113 -1 136 -25 16 -15 25 -36
25 -55 0 -19 -9 -40 -25 -55 -23 -24 -31 -25 -135 -25 -104 0 -112 1 -135 25
-14 13 -25 31 -25 40 0 12 -15 15 -80 15 -67 0 -80 -3 -80 -16 0 -100 124
-224 224 -224 12 0 16 -10 16 -40 l0 -40 80 0 80 0 0 40 c0 32 4 40 18 40 48
0 113 34 155 80 93 103 90 228 -8 325 -63 64 -100 75 -244 75 -105 0 -113 1
-136 25 -33 32 -33 78 0 110 23 24 31 25 135 25 104 0 112 -1 135 -25 14 -13
25 -31 25 -40 0 -12 15 -15 80 -15 67 0 80 3 80 16 0 76 -80 182 -157 208 -26
9 -55 16 -65 16 -14 0 -18 8 -18 40 l0 40 -80 0 -80 0 0 -40z"/>
<path d="M1520 4000 l0 -80 80 0 80 0 0 80 0 80 -80 0 -80 0 0 -80z"/>
<path d="M2640 4000 l0 -80 80 0 80 0 0 80 0 80 -80 0 -80 0 0 -80z"/>
<path d="M800 3280 l0 -80 160 0 160 0 0 80 0 80 -160 0 -160 0 0 -80z"/>
<path d="M1280 3280 l0 -80 960 0 960 0 0 80 0 80 -960 0 -960 0 0 -80z"/>
<path d="M3700 3344 c-177 -38 -348 -171 -429 -334 -108 -221 -92 -452 47
-657 101 -150 122 -224 122 -448 0 -88 -4 -176 -10 -194 -5 -19 -41 -82 -80
-141 -38 -58 -70 -111 -70 -118 0 -9 -28 -12 -96 -12 -128 0 -168 -13 -229
-75 -69 -68 -75 -94 -75 -324 0 -190 0 -192 25 -216 20 -21 34 -25 80 -25 l55
0 0 -135 c0 -131 1 -137 25 -160 l24 -25 751 0 751 0 24 25 c24 23 25 29 25
160 l0 135 55 0 c46 0 60 4 80 25 25 24 25 26 25 216 0 230 -6 256 -75 324
-61 62 -101 75 -229 75 -68 0 -96 3 -96 12 0 7 -32 60 -70 118 -39 59 -75 122
-80 141 -6 18 -10 104 -10 190 0 216 27 318 116 440 48 66 92 165 109 245 96
454 -309 856 -765 758z m253 -159 c180 -47 320 -193 358 -372 15 -75 6 -183
-21 -255 -11 -31 -44 -92 -72 -135 -109 -165 -138 -278 -138 -532 0 -202 13
-256 90 -371 l50 -75 -190 -3 c-105 -1 -275 -1 -379 0 l-190 3 54 84 c80 125
88 167 83 407 -5 171 -8 209 -28 269 -28 86 -58 147 -114 230 -56 82 -86 162
-93 250 -25 320 283 580 590 500z m662 -1930 c24 -23 25 -29 25 -160 l0 -135
-800 0 -800 0 0 135 c0 131 1 137 25 160 l24 25 751 0 751 0 24 -25z m-135
-535 l0 -80 -640 0 -640 0 0 80 0 80 640 0 640 0 0 -80z"/>
<path d="M800 2960 l0 -80 1120 0 1120 0 0 80 0 80 -1120 0 -1120 0 0 -80z"/>
<path d="M800 2640 l0 -80 1120 0 1120 0 0 80 0 80 -1120 0 -1120 0 0 -80z"/>
<path d="M800 2320 l0 -80 160 0 160 0 0 80 0 80 -160 0 -160 0 0 -80z"/>
<path d="M2080 2320 l0 -80 480 0 480 0 0 80 0 80 -480 0 -480 0 0 -80z"/>
<path d="M1450 2226 c-279 -60 -505 -251 -598 -508 -108 -300 -39 -620 184
-842 359 -359 956 -296 1234 131 89 136 125 259 125 433 0 174 -36 298 -124
432 -113 173 -274 288 -481 345 -78 21 -260 26 -340 9z m285 -161 c113 -23
227 -87 316 -176 251 -249 251 -647 -1 -899 -252 -252 -650 -252 -899 -1 -254
254 -254 648 -1 901 156 156 369 220 585 175z"/>
<path d="M1728 1523 l-208 -208 -88 88 c-48 48 -92 87 -98 87 -13 0 -104 -93
-104 -106 0 -5 58 -67 128 -137 114 -112 133 -127 162 -127 31 0 56 22 282
247 136 136 248 252 248 258 0 13 -92 105 -105 105 -6 0 -103 -93 -217 -207z"/>
<path d="M2480 2000 l0 -80 320 0 320 0 0 80 0 80 -320 0 -320 0 0 -80z"/>
</g>
</svg>
