<?xml version="1.0" standalone="no"?>
<!DOCTYPE svg PUBLIC "-//W3C//DTD SVG 20010904//EN"
 "http://www.w3.org/TR/2001/REC-SVG-20010904/DTD/svg10.dtd">
<svg version="1.0" xmlns="http://www.w3.org/2000/svg"
 width="512.000000pt" height="512.000000pt" viewBox="0 0 512.000000 512.000000"
 preserveAspectRatio="xMidYMid meet">

<g transform="translate(0.000000,512.000000) scale(0.100000,-0.100000)"
fill="#000000" stroke="none">
<path d="M382 5019 c-51 -25 -78 -61 -91 -120 -6 -25 -11 -192 -11 -387 l0
-343 -100 -228 c-58 -132 -100 -241 -100 -260 0 -39 24 -98 52 -128 11 -12 49
-34 84 -49 l64 -27 2 -1631 c3 -1581 4 -1632 22 -1669 11 -22 37 -51 59 -65
l41 -27 1795 -3 c1624 -2 1800 -1 1838 13 50 19 88 61 103 113 6 24 10 303 10
791 l0 753 68 119 c44 79 73 119 84 119 56 0 52 -5 424 642 111 193 120 205
137 191 9 -9 17 -27 17 -40 0 -13 -92 -183 -205 -378 -119 -207 -205 -366
-205 -381 0 -58 83 -95 128 -56 21 18 377 628 418 717 31 64 30 126 0 190 -26
57 -59 88 -143 136 -32 18 -60 34 -62 35 -2 2 13 32 33 68 29 52 36 75 36 119
0 71 -27 110 -109 160 -133 81 -224 56 -301 -79 -30 -53 -31 -54 -53 -39 -26
18 -77 20 -100 2 -10 -6 -51 -71 -92 -142 l-75 -130 0 665 c0 450 -4 678 -11
705 -9 33 -60 89 -302 333 -186 187 -306 300 -333 312 -40 20 -67 20 -1560 20
l-1519 0 -43 -21z m3008 -389 c0 -278 3 -294 63 -330 30 -18 52 -20 285 -20
l252 0 0 -775 0 -776 -106 -184 c-97 -169 -106 -188 -100 -222 3 -21 7 -42 7
-48 1 -5 -141 -257 -315 -559 l-317 -548 11 -186 c8 -125 8 -188 1 -195 -7 -7
-35 -3 -88 13 -60 18 -102 24 -178 24 -116 0 -164 -15 -291 -92 -112 -68 -135
-76 -202 -69 -79 7 -129 26 -235 90 -125 75 -184 91 -312 84 -99 -5 -281 -46
-374 -83 -52 -21 -74 -61 -59 -106 19 -55 63 -60 179 -24 124 40 235 59 314
54 75 -5 85 -9 220 -92 118 -72 281 -103 385 -73 30 9 97 41 147 71 162 97
239 105 414 45 120 -40 142 -39 179 12 16 23 32 48 35 58 2 9 75 51 162 95 87
43 165 85 174 93 9 8 90 142 180 298 l164 284 3 -602 c1 -331 0 -608 -3 -614
-3 -10 -366 -13 -1769 -13 -1599 0 -1764 1 -1770 16 -3 9 -6 723 -6 1589 l0
1572 42 7 c30 5 52 18 83 49 23 23 44 49 47 57 4 13 11 12 53 -5 l49 -20 18
-77 17 -78 -34 -72 c-42 -88 -47 -158 -14 -225 27 -55 88 -107 144 -123 40
-11 45 -16 45 -42 0 -127 173 -244 293 -199 20 8 27 4 50 -24 39 -49 101 -75
179 -75 64 0 66 -1 93 -36 71 -93 220 -110 320 -35 l38 28 33 -19 c42 -25 118
-33 172 -18 60 16 128 80 149 140 17 47 18 48 72 59 95 19 167 88 186 179 4
20 13 32 23 32 48 0 100 25 142 69 49 49 70 102 70 170 0 22 4 41 10 41 20 0
94 76 111 115 10 22 19 56 19 75 0 36 6 40 102 75 12 5 21 -3 33 -29 20 -41
53 -68 108 -85 46 -15 72 -10 217 45 85 33 123 53 147 78 35 38 57 104 48 145
-11 50 -405 1056 -423 1081 -11 14 -34 35 -52 48 -54 36 -111 30 -262 -29
-114 -45 -133 -56 -158 -90 -37 -52 -45 -103 -26 -160 9 -24 16 -50 16 -56 0
-19 -94 -63 -135 -63 -19 0 -83 18 -141 40 -226 86 -333 91 -491 20 l-62 -28
-63 25 c-96 39 -201 42 -357 9 -68 -14 -137 -26 -153 -26 -16 0 -62 15 -103
34 l-74 34 20 59 c41 120 -6 189 -186 268 -136 59 -183 65 -245 33 -46 -25
-73 -66 -141 -218 l-24 -55 -3 145 c-1 80 0 155 3 168 l5 22 1470 0 1470 0 0
-250z m325 -30 l160 -160 -163 0 -162 0 0 160 c0 88 1 160 3 160 1 0 74 -72
162 -160z m-2923 38 c62 -28 98 -49 98 -58 0 -13 -425 -987 -436 -999 -5 -6
-204 80 -210 91 -3 4 88 218 202 475 114 258 213 483 221 501 7 17 17 32 21
32 4 0 51 -19 104 -42z m2359 -536 c147 -379 194 -510 185 -518 -18 -17 -200
-84 -207 -76 -7 8 -387 989 -391 1011 -2 10 28 27 92 52 52 21 102 38 110 39
11 0 73 -149 211 -508z m-2111 172 c113 -49 165 -52 320 -20 125 26 224 33
248 17 23 -14 -144 -159 -310 -267 -104 -68 -128 -94 -128 -135 0 -33 45 -95
101 -141 136 -110 269 -122 486 -42 258 94 265 96 317 92 43 -4 91 -27 311
-153 143 -81 270 -157 283 -168 42 -38 15 -117 -40 -117 -12 0 -111 50 -220
111 -211 118 -225 122 -268 79 -27 -27 -25 -73 3 -103 12 -13 101 -68 197
-122 96 -53 183 -106 193 -117 35 -42 6 -108 -48 -108 -14 0 -137 63 -274 140
-137 77 -259 140 -271 140 -25 0 -80 -51 -80 -74 0 -43 27 -66 169 -147 277
-156 280 -158 287 -185 13 -51 -38 -104 -83 -87 -39 15 -280 157 -303 178 -35
33 -95 56 -150 58 -44 2 -50 6 -81 47 -45 58 -113 93 -183 94 -50 0 -55 2 -72
34 -26 48 -88 90 -155 103 -53 10 -58 14 -75 51 -47 104 -184 156 -294 112
-23 -9 -42 -15 -44 -13 -1 2 -15 25 -30 51 -23 40 -37 53 -96 80 l-69 32 13
31 c29 68 259 585 261 585 1 0 39 -16 85 -36z m1216 -29 c94 -38 135 -49 196
-53 71 -4 82 -2 144 27 37 17 68 30 70 28 2 -1 55 -137 120 -302 64 -165 118
-305 120 -311 3 -6 -23 -22 -57 -37 -54 -23 -65 -25 -78 -13 -17 14 -463 271
-561 322 -50 26 -64 29 -150 28 -85 0 -106 -5 -195 -38 -238 -90 -269 -99
-335 -100 -63 0 -137 25 -154 53 -4 5 33 37 82 70 49 33 141 109 206 168 249
228 348 254 592 158z m-1197 -871 c12 -15 21 -34 21 -42 0 -17 -103 -206 -128
-234 -33 -39 -112 -3 -112 50 0 25 78 184 112 227 27 35 79 35 107 -1z m3625
-115 c20 -12 36 -25 36 -31 0 -5 -12 -29 -26 -54 -28 -47 -28 -47 -91 -6 l-23
14 28 49 c15 27 30 49 34 49 4 0 23 -9 42 -21z m-3381 -61 c9 -11 17 -29 17
-41 0 -25 -137 -287 -159 -304 -42 -32 -111 5 -111 59 0 37 148 297 175 308
27 11 56 3 78 -22z m3230 -174 c72 -42 142 -83 154 -90 21 -13 18 -20 -188
-376 -115 -200 -214 -365 -219 -366 -6 -2 -78 35 -161 83 -102 60 -148 92
-145 101 5 13 373 655 402 702 8 12 17 22 19 22 3 0 65 -34 138 -76z m-2970
38 c9 -8 17 -26 17 -40 0 -29 -104 -241 -128 -259 -40 -32 -112 -3 -112 45 0
35 126 270 148 275 23 6 54 -2 75 -21z m267 -150 c11 -13 20 -31 20 -39 0 -31
-112 -224 -137 -236 -32 -14 -73 1 -92 34 -13 23 -10 32 45 139 60 116 85 143
125 133 11 -3 28 -17 39 -31z m236 -157 c15 -58 -25 -105 -78 -91 -49 13 -50
19 -17 84 l32 61 28 -15 c16 -8 32 -26 35 -39z m1986 -625 c53 -30 95 -57 94
-60 -2 -3 -140 -243 -307 -534 l-304 -528 -99 -50 c-54 -27 -99 -48 -101 -46
-1 2 -4 53 -6 113 l-4 110 304 528 c168 290 310 526 316 525 6 -2 54 -28 107
-58z"/>
<path d="M2895 2885 c-16 -15 -25 -36 -25 -55 0 -19 9 -40 25 -55 l24 -25 335
0 335 0 27 23 c37 33 37 81 0 114 l-27 23 -335 0 -335 0 -24 -25z"/>
<path d="M816 2349 c-35 -28 -36 -80 -1 -114 l24 -25 1311 0 1312 0 29 29 c16
16 29 37 29 46 0 21 -19 57 -39 72 -12 10 -312 12 -1327 13 l-1311 0 -27 -21z"/>
<path d="M812 1807 c-27 -29 -28 -77 -3 -108 l19 -24 1193 -3 c1303 -2 1227
-6 1249 54 11 28 -2 71 -28 90 -14 11 -248 13 -1213 14 l-1196 0 -21 -23z"/>
<path d="M812 1267 c-22 -23 -28 -60 -16 -92 18 -46 -1 -45 1086 -45 805 0
1028 3 1048 13 38 19 55 61 40 98 -7 16 -21 34 -31 39 -11 6 -412 10 -1062 10
l-1044 0 -21 -23z"/>
<path d="M696 4568 c-20 -28 -20 -48 0 -76 23 -34 83 -27 104 11 13 24 13 30
0 55 -21 37 -81 44 -104 10z"/>
<path d="M2837 4512 c-34 -37 -15 -95 34 -107 29 -7 63 17 73 51 16 53 -70 97
-107 56z"/>
</g>
</svg>
