<?xml version="1.0" standalone="no"?>
<!DOCTYPE svg PUBLIC "-//W3C//DTD SVG 20010904//EN"
 "http://www.w3.org/TR/2001/REC-SVG-20010904/DTD/svg10.dtd">
<svg version="1.0" xmlns="http://www.w3.org/2000/svg"
 width="512.000000pt" height="512.000000pt" viewBox="0 0 512.000000 512.000000"
 preserveAspectRatio="xMidYMid meet">

<g transform="translate(0.000000,512.000000) scale(0.100000,-0.100000)"
fill="#000000" stroke="none">
<path d="M584 4071 c-57 -35 -58 -49 -35 -368 12 -158 24 -316 27 -350 6 -61
6 -63 -17 -63 -69 -1 -162 -79 -175 -146 -27 -146 71 -305 209 -338 20 -5 27
-13 27 -30 0 -76 75 -210 165 -295 55 -52 55 -53 55 -112 l0 -59 -229 0 c-125
0 -253 -5 -282 -10 -114 -22 -231 -106 -279 -201 -48 -92 -50 -117 -50 -580 0
-415 1 -438 19 -460 l19 -24 1157 0 1157 0 19 24 c19 24 20 40 17 480 -4 507
-2 492 -75 599 -41 60 -111 115 -186 145 -47 19 -76 22 -314 25 l-263 4 0 58
c0 58 1 59 55 111 30 28 70 75 89 103 37 57 76 154 76 191 0 19 9 26 49 40
104 34 180 137 189 255 5 72 -13 124 -60 167 -27 26 -88 53 -119 53 -20 0 -21
3 -15 63 3 34 15 193 27 353 19 269 20 294 5 323 -33 63 -17 61 -653 61 -548
0 -580 -1 -609 -19z m1121 -173 c-3 -24 -14 -166 -25 -317 -11 -151 -23 -277
-26 -280 -2 -3 -17 2 -31 11 -26 16 -33 26 -84 132 -40 83 -52 86 -342 86
-209 0 -254 -3 -283 -16 -42 -20 -68 -55 -83 -111 -12 -43 -62 -103 -86 -103
-15 0 -18 24 -40 340 -8 118 -17 234 -20 258 l-5 42 515 0 515 0 -5 -42z
m-281 -562 c9 -25 30 -63 46 -85 30 -41 120 -101 152 -101 9 0 19 -3 22 -8 2
-4 -2 -90 -10 -192 -17 -219 -31 -258 -128 -356 -77 -76 -208 -145 -291 -152
-140 -12 -354 128 -422 274 -19 43 -26 82 -38 235 -7 100 -12 186 -9 191 3 4
13 8 22 8 32 0 122 60 152 101 16 22 37 60 46 85 l17 44 212 0 212 0 17 -44z
m-830 -233 c11 -67 7 -135 -6 -131 -25 8 -58 71 -58 107 0 68 53 87 64 24z
m1256 22 c17 -21 7 -87 -20 -125 -12 -16 -26 -30 -31 -30 -10 0 -12 76 -3 133
7 40 31 50 54 22z m-760 -819 c69 -20 140 -20 210 0 108 31 100 33 100 -23 0
-29 7 -58 16 -72 21 -30 7 -80 -37 -134 -48 -58 -101 -81 -184 -81 -83 0 -136
23 -184 81 -45 55 -57 101 -37 141 9 17 16 50 16 73 0 46 -8 45 100 15z m-274
-173 c11 -44 51 -119 84 -156 l30 -35 0 -134 c0 -122 2 -138 21 -162 15 -19
30 -26 54 -26 24 0 39 7 54 26 18 23 21 41 21 120 l0 92 38 -10 c20 -6 71 -8
115 -5 l77 6 0 -334 0 -335 -115 0 -115 0 0 94 c0 113 -14 140 -75 140 -61 0
-75 -27 -75 -140 l0 -94 -195 0 -195 0 0 262 c0 255 -1 262 -22 285 -29 31
-72 30 -103 -2 l-25 -24 0 -261 0 -260 -120 0 -121 0 3 398 c3 439 2 432 70
501 71 72 101 79 370 80 l218 1 6 -27z m1274 3 c49 -26 98 -74 123 -121 21
-39 22 -52 25 -437 l3 -398 -121 0 -120 0 0 260 0 261 -25 24 c-30 31 -71 32
-102 3 -23 -21 -23 -22 -23 -285 l0 -263 -195 0 -195 0 0 381 0 381 30 35 c33
37 73 112 84 156 l7 29 237 -4 c208 -3 241 -5 272 -22z"/>
<path d="M3825 3960 c-182 -33 -359 -159 -443 -317 -42 -79 -72 -198 -72 -283
l0 -67 -37 -7 c-50 -8 -94 -36 -129 -82 -26 -34 -29 -45 -29 -118 1 -68 5 -89
27 -132 34 -64 96 -118 159 -139 40 -14 49 -21 49 -40 0 -37 39 -134 76 -191
19 -28 59 -75 89 -103 54 -52 55 -53 55 -111 l0 -58 -262 -4 c-292 -5 -308 -8
-406 -75 -60 -41 -115 -111 -146 -186 -20 -50 -21 -68 -24 -508 -3 -440 -2
-456 17 -480 l19 -24 1157 0 1157 0 19 24 c18 22 19 45 19 461 0 402 -2 443
-19 499 -38 123 -124 216 -243 264 -48 19 -76 22 -315 25 l-263 4 0 58 c0 58
1 59 55 111 90 85 165 219 165 295 0 17 7 25 28 30 137 33 235 192 208 338
-12 66 -106 145 -172 146 -20 0 -21 7 -27 98 -9 163 -70 294 -187 406 -79 74
-133 107 -232 140 -85 29 -214 40 -293 26z m198 -155 c91 -19 160 -58 232
-130 62 -62 107 -139 124 -216 19 -80 7 -332 -12 -274 -3 11 -13 66 -22 123
-8 57 -22 117 -30 133 -31 60 -110 75 -179 35 -126 -74 -296 -74 -422 0 -69
40 -148 25 -179 -35 -8 -16 -22 -76 -30 -133 -9 -57 -19 -112 -22 -123 -19
-58 -31 194 -12 274 17 77 62 154 124 216 71 71 141 111 228 130 81 18 118 18
200 0z m-278 -508 c42 -18 71 -21 180 -22 119 0 135 2 195 27 35 15 65 26 67
24 2 -2 10 -41 17 -88 8 -47 23 -103 34 -125 19 -35 73 -92 114 -118 26 -16 6
-212 -29 -285 -62 -128 -243 -257 -376 -267 -146 -11 -348 119 -422 271 -33
69 -52 265 -27 281 41 26 95 82 113 117 18 35 25 65 45 186 4 27 9 32 22 27 9
-4 40 -17 67 -28z m-421 -194 c9 -57 7 -133 -3 -133 -18 0 -53 61 -58 100 -6
43 8 70 37 70 12 0 19 -11 24 -37z m1256 22 c26 -31 -9 -140 -48 -153 -13 -4
-16 66 -6 131 7 40 31 50 54 22z m-760 -819 c30 -9 78 -16 105 -16 28 0 75 7
105 16 107 30 100 31 100 -15 0 -23 7 -56 16 -73 20 -40 8 -86 -37 -141 -48
-58 -101 -81 -184 -81 -83 0 -136 23 -184 81 -44 54 -58 104 -37 134 9 14 16
43 16 72 0 56 -8 54 100 23z m-274 -173 c13 -57 69 -146 121 -193 75 -69 144
-94 258 -94 114 0 183 25 258 94 52 48 108 136 121 193 l7 29 237 -4 c220 -3
240 -5 278 -25 50 -27 97 -75 121 -122 16 -32 18 -75 21 -433 l3 -398 -121 0
-120 0 0 260 0 261 -25 24 c-30 31 -71 32 -102 3 -20 -19 -23 -31 -23 -95 l0
-73 -87 0 c-75 0 -90 -3 -110 -22 -31 -29 -30 -72 2 -103 22 -23 32 -25 110
-25 l85 0 0 -115 0 -115 -655 0 -655 0 0 115 0 114 426 3 426 3 19 24 c26 32
24 67 -6 96 l-24 25 -421 0 -420 0 0 72 c0 60 -4 76 -22 95 -29 31 -72 30
-103 -2 l-25 -24 0 -261 0 -260 -120 0 -121 0 3 398 c3 439 1 426 72 500 68
73 98 80 368 81 l218 1 6 -27z"/>
<path d="M2156 3675 c-81 -29 -145 -119 -146 -205 0 -29 22 -110 61 -227 48
-144 66 -187 87 -203 45 -36 112 -4 112 54 0 17 -25 102 -55 189 -30 87 -55
171 -55 187 0 33 40 70 75 70 48 0 62 -28 160 -320 98 -293 117 -330 165 -330
48 0 67 37 165 330 98 292 112 320 160 320 34 0 75 -37 75 -68 0 -46 -330
-1005 -352 -1024 -11 -10 -33 -18 -48 -18 -15 0 -37 8 -47 18 -12 10 -44 88
-78 187 -34 101 -65 177 -77 188 -45 38 -118 7 -118 -51 0 -30 97 -328 123
-377 79 -152 314 -153 394 -2 8 16 90 254 184 529 124 367 169 513 169 547 -1
156 -168 264 -310 200 -90 -40 -104 -64 -179 -291 -29 -87 -56 -158 -61 -158
-5 0 -32 71 -61 158 -75 227 -89 251 -179 291 -52 24 -109 26 -164 6z"/>
</g>
</svg>
