<?xml version="1.0" standalone="no"?>
<!DOCTYPE svg PUBLIC "-//W3C//DTD SVG 20010904//EN"
 "http://www.w3.org/TR/2001/REC-SVG-20010904/DTD/svg10.dtd">
<svg version="1.0" xmlns="http://www.w3.org/2000/svg"
 width="512.000000pt" height="512.000000pt" viewBox="0 0 512.000000 512.000000"
 preserveAspectRatio="xMidYMid meet">

<g transform="translate(0.000000,512.000000) scale(0.100000,-0.100000)"
fill="#000000" stroke="none">
<path d="M3225 5105 c-87 -48 -95 -72 -95 -296 l0 -182 -39 7 c-54 8 -151 -11
-178 -37 -33 -30 -31 -79 4 -107 23 -18 35 -20 73 -14 25 4 54 7 65 7 11 -1
47 -3 80 -4 46 -3 67 1 89 16 50 33 56 65 56 281 l0 196 68 -7 c684 -71 1222
-660 1222 -1337 l0 -118 -85 0 -85 0 0 75 c0 101 -27 169 -96 244 -76 82 -151
115 -259 115 -149 -1 -263 -71 -327 -202 -29 -59 -33 -76 -33 -149 l0 -83
-186 0 c-133 0 -190 4 -202 13 -14 10 -17 42 -19 245 l-3 234 -39 35 -38 35
-92 -6 c-87 -7 -94 -6 -146 21 -66 33 -106 92 -116 168 -12 90 -76 124 -131
69 -23 -23 -25 -31 -19 -80 10 -90 42 -159 101 -220 77 -78 146 -108 252 -109
l83 0 0 -200 c0 -217 8 -253 61 -302 53 -48 83 -53 327 -53 222 0 230 1 263
23 53 35 61 59 53 159 -5 77 -4 93 16 133 41 85 132 134 224 121 53 -8 98 -37
140 -89 30 -38 31 -41 31 -151 0 -175 24 -196 222 -196 136 0 184 16 224 71
23 33 24 40 24 209 0 146 -4 193 -24 280 -61 277 -193 526 -389 732 -251 263
-618 440 -964 464 -66 4 -89 2 -113 -11z"/>
<path d="M1510 4750 c-14 -3 -31 -18 -40 -32 -13 -24 -12 -42 9 -175 18 -117
27 -153 44 -171 29 -31 83 -27 109 9 19 25 19 27 -3 174 -28 181 -48 213 -119
195z"/>
<path d="M782 4367 c-43 -45 -32 -70 85 -189 59 -60 117 -111 129 -114 34 -9
81 21 89 55 3 17 2 38 -3 48 -6 10 -57 64 -115 121 -115 112 -143 124 -185 79z"/>
<path d="M2200 4290 c-498 -68 -932 -371 -1159 -810 -65 -126 -119 -276 -148
-410 -26 -122 -26 -459 0 -580 57 -262 166 -491 326 -684 29 -35 66 -70 81
-76 50 -21 100 16 100 72 0 14 -21 48 -51 83 -71 84 -139 186 -188 284 -45 89
-105 259 -116 329 l-7 42 76 0 76 0 0 -74 c0 -95 28 -171 89 -238 56 -62 102
-92 177 -114 164 -47 346 41 422 204 20 43 27 77 30 140 l4 82 199 0 199 0 0
-232 c0 -213 2 -236 20 -265 32 -52 70 -66 161 -58 95 8 144 -10 201 -73 80
-89 76 -198 -11 -283 -61 -58 -119 -77 -194 -61 -80 18 -133 -3 -161 -63 -13
-27 -16 -74 -16 -264 l0 -231 -254 0 -254 0 -17 73 c-44 182 -152 438 -201
476 -34 26 -54 26 -88 0 -36 -28 -34 -64 9 -149 48 -96 92 -208 123 -315 25
-88 26 -100 31 -470 l6 -380 26 -56 c32 -68 82 -120 152 -157 l52 -27 469 -3
c412 -3 475 -1 521 13 78 25 142 79 184 155 l36 65 6 380 c6 417 6 419 75 603
72 192 169 355 313 526 199 234 297 416 362 669 48 189 -13 276 -196 277 l-80
0 0 68 c-1 37 -8 90 -18 117 -39 112 -148 211 -267 241 -156 40 -330 -47 -405
-201 -25 -49 -29 -71 -29 -141 l-1 -84 -202 0 -202 0 -3 245 -3 245 -33 32
-32 33 -114 0 c-111 0 -115 1 -158 30 -115 81 -124 249 -19 338 47 39 94 50
183 43 91 -8 127 5 158 57 18 29 20 51 20 246 0 202 -1 215 -22 253 -41 73
-109 95 -238 78z m108 -311 l2 -167 -87 -4 c-113 -6 -181 -37 -252 -113 -125
-138 -128 -348 -5 -484 67 -75 155 -115 261 -120 l83 -3 0 -199 0 -199 -225 0
c-247 0 -279 -6 -312 -56 -15 -23 -18 -48 -18 -134 0 -99 -2 -109 -28 -148
-74 -112 -220 -133 -317 -46 -60 54 -74 93 -67 189 5 65 2 88 -12 121 -27 60
-64 74 -201 74 l-113 0 6 153 c6 172 31 291 92 445 182 455 611 787 1099 852
99 13 91 26 94 -161z m1007 -1027 c91 -45 135 -137 114 -241 -14 -71 3 -121
53 -151 28 -17 50 -20 141 -20 91 0 107 -2 107 -16 0 -33 -41 -173 -75 -258
-62 -153 -124 -251 -275 -431 -212 -254 -315 -457 -400 -782 l-11 -43 -254 0
-255 0 0 203 0 202 73 1 c50 0 90 7 129 23 63 25 147 94 184 153 28 44 54 136
54 190 0 55 -36 155 -76 209 -68 93 -201 156 -310 147 l-54 -5 0 204 0 203
236 0 c260 0 274 3 309 62 14 25 16 43 10 113 -6 72 -4 89 14 127 33 72 71
106 138 124 53 14 102 9 148 -14z m-355 -2157 l0 -65 -359 0 -360 0 -20 -26
c-28 -35 -26 -69 4 -99 l24 -25 356 0 355 0 0 -75 0 -75 -575 0 -575 0 0 75 0
75 69 0 c85 0 121 22 121 76 0 57 -27 74 -115 74 l-75 0 0 65 0 65 575 0 575
0 0 -65z m-10 -526 c0 -27 -44 -79 -84 -98 -41 -20 -58 -21 -479 -21 -349 0
-444 3 -470 14 -37 16 -82 61 -92 94 l-6 22 565 0 c415 0 566 -3 566 -11z"/>
<path d="M420 3670 c-26 -26 -26 -81 0 -105 13 -12 67 -25 171 -42 151 -25
152 -25 178 -5 40 29 41 100 3 121 -21 11 -257 51 -302 51 -17 0 -39 -9 -50
-20z"/>
<path d="M4133 2168 c-28 -30 -29 -68 -4 -99 16 -21 31 -25 108 -31 48 -3 123
-7 165 -7 71 -1 78 1 97 25 33 42 26 86 -18 108 -16 9 -83 16 -176 21 -150 7
-150 7 -172 -17z"/>
<path d="M3901 1574 c-23 -30 -26 -46 -11 -74 13 -25 211 -187 241 -199 46
-16 99 23 99 73 0 23 -37 62 -140 145 -115 92 -151 103 -189 55z"/>
<path d="M3378 1243 c-28 -33 -27 -51 12 -200 42 -156 57 -183 107 -183 30 0
73 42 73 71 0 24 -54 236 -72 282 -6 15 -19 32 -29 37 -28 16 -75 12 -91 -7z"/>
</g>
</svg>
