<?xml version="1.0" standalone="no"?>
<!DOCTYPE svg PUBLIC "-//W3C//DTD SVG 20010904//EN"
 "http://www.w3.org/TR/2001/REC-SVG-20010904/DTD/svg10.dtd">
<svg version="1.0" xmlns="http://www.w3.org/2000/svg"
 width="512.000000pt" height="512.000000pt" viewBox="0 0 512.000000 512.000000"
 preserveAspectRatio="xMidYMid meet">

<g transform="translate(0.000000,512.000000) scale(0.100000,-0.100000)"
fill="#000000" stroke="none">
<path d="M3833 4625 c-201 -36 -365 -124 -513 -274 -129 -130 -212 -278 -257
-457 -24 -95 -24 -333 0 -428 45 -179 128 -327 257 -457 177 -180 385 -273
635 -286 277 -14 519 81 720 282 136 136 217 278 260 456 32 134 29 365 -6
443 -24 51 -105 57 -136 9 -14 -21 -14 -34 -3 -114 45 -313 -92 -616 -358
-790 -309 -203 -726 -159 -991 102 -161 159 -236 340 -236 569 0 174 36 297
125 433 227 349 670 464 1047 273 65 -32 87 -33 118 -1 26 25 32 63 15 95 -26
48 -230 130 -373 149 -101 14 -213 13 -304 -4z"/>
<path d="M4827 4458 c-18 -17 -602 -654 -811 -885 -9 -10 -53 37 -190 202
-112 135 -188 218 -203 221 -40 10 -72 -4 -90 -41 -14 -28 -14 -39 -4 -61 21
-48 425 -524 449 -530 12 -4 32 -4 45 0 18 4 547 571 885 948 60 68 67 104 27
143 -31 32 -76 33 -108 3z"/>
<path d="M633 3823 c-52 -18 -125 -95 -141 -151 -9 -29 -12 -367 -12 -1351 l0
-1312 25 -24 c32 -33 78 -33 110 0 l25 24 0 1311 0 1311 25 24 24 25 1069 0
c1059 0 1068 0 1090 20 40 38 37 93 -7 127 -12 10 -261 12 -1091 12 -928 -1
-1081 -3 -1117 -16z"/>
<path d="M825 3495 l-25 -24 0 -1231 0 -1231 25 -24 24 -25 1711 0 1711 0 24
25 25 24 0 751 0 751 -25 24 c-32 33 -78 33 -110 0 l-25 -24 0 -696 0 -695
-1600 0 -1600 0 0 1120 0 1120 935 0 936 0 24 25 c16 15 25 36 25 55 0 19 -9
40 -25 55 l-24 25 -991 0 -991 0 -24 -25z"/>
<path d="M1465 2855 c-21 -20 -25 -34 -25 -83 l0 -58 -54 -23 c-117 -48 -192
-174 -184 -306 6 -85 30 -136 91 -192 51 -48 92 -70 194 -106 150 -54 223
-104 254 -172 51 -112 -18 -259 -143 -301 -105 -34 -219 -1 -316 93 -41 39
-63 53 -84 53 -39 0 -78 -40 -78 -80 0 -68 174 -205 286 -226 l34 -6 0 -60 c0
-49 4 -63 25 -83 32 -33 78 -33 110 0 21 20 25 34 25 82 l0 58 53 19 c134 48
227 156 257 301 43 209 -79 369 -357 469 -108 38 -152 63 -173 99 -44 72 -11
174 67 209 64 28 136 20 228 -27 80 -40 103 -43 132 -15 46 43 38 98 -22 138
-40 28 -142 71 -167 72 -15 0 -18 10 -18 60 0 51 -4 65 -25 85 -15 16 -36 25
-55 25 -19 0 -40 -9 -55 -25z"/>
<path d="M4505 2615 l-25 -24 0 -791 0 -791 25 -24 c15 -16 36 -25 55 -25 19
0 40 9 55 25 l25 24 0 791 0 791 -25 24 c-15 16 -36 25 -55 25 -19 0 -40 -9
-55 -25z"/>
<path d="M2265 2375 c-16 -15 -25 -36 -25 -55 0 -19 9 -40 25 -55 l24 -25 751
0 751 0 24 25 c33 32 33 78 0 110 l-24 25 -751 0 -751 0 -24 -25z"/>
<path d="M2265 2055 c-16 -15 -25 -36 -25 -55 0 -19 9 -40 25 -55 l24 -25 751
0 751 0 24 25 c33 32 33 78 0 110 l-24 25 -751 0 -751 0 -24 -25z"/>
<path d="M2265 1735 c-16 -15 -25 -36 -25 -55 0 -19 9 -40 25 -55 l24 -25 431
0 431 0 24 25 c16 15 25 36 25 55 0 19 -9 40 -25 55 l-24 25 -431 0 -431 0
-24 -25z"/>
<path d="M183 774 c-24 -24 -25 -30 -20 -91 13 -139 96 -257 225 -321 l76 -37
2096 0 2096 0 76 37 c129 64 212 182 225 321 5 61 4 67 -20 91 l-26 26 -911 0
-911 0 -24 -25 c-33 -32 -33 -78 0 -110 l24 -25 846 0 c760 0 845 -2 845 -16
0 -27 -101 -119 -146 -132 -60 -18 -4088 -18 -4148 0 -45 13 -146 105 -146
132 0 14 85 16 845 16 l846 0 24 25 c33 32 33 78 0 110 l-24 25 -911 0 -911 0
-26 -26z"/>
</g>
</svg>
