<?xml version="1.0" standalone="no"?>
<!DOCTYPE svg PUBLIC "-//W3C//DTD SVG 20010904//EN"
 "http://www.w3.org/TR/2001/REC-SVG-20010904/DTD/svg10.dtd">
<svg version="1.0" xmlns="http://www.w3.org/2000/svg"
 width="1536.000000pt" height="1024.000000pt" viewBox="0 0 1536.000000 1024.000000"
 preserveAspectRatio="xMidYMid meet">

<g transform="translate(0.000000,1024.000000) scale(0.100000,-0.100000)"
fill="#000000" stroke="none">
<path d="M2890 6554 c-229 -22 -507 -129 -693 -267 -107 -79 -259 -233 -329
-332 -118 -168 -218 -405 -252 -593 -20 -108 -15 -429 8 -540 39 -192 138
-411 254 -567 241 -323 643 -556 998 -579 86 -5 79 -3 -71 20 -125 19 -315 82
-414 136 -402 220 -656 553 -754 988 -29 133 -31 455 -3 575 69 295 197 528
406 735 271 270 558 396 945 414 241 12 461 -19 650 -91 442 -168 786 -583
882 -1063 27 -133 24 -443 -5 -575 -85 -383 -289 -688 -592 -886 -133 -87
-171 -108 -280 -150 -189 -72 -335 -101 -532 -103 -82 0 -148 -5 -148 -10 0
-13 291 0 395 19 114 20 340 96 425 143 355 196 603 493 708 848 49 164 65
302 59 499 -6 199 -31 323 -95 475 -81 191 -177 339 -314 478 -207 211 -426
335 -703 397 -102 23 -148 27 -310 30 -104 2 -210 1 -235 -1z"/>
<path d="M2885 6310 c-314 -40 -626 -238 -809 -513 -143 -215 -201 -392 -212
-652 -18 -404 166 -777 508 -1030 180 -134 436 -215 676 -215 209 0 413 45
582 129 224 111 429 315 539 537 209 421 167 887 -114 1262 -181 243 -443 412
-727 467 -98 19 -344 28 -443 15z m435 -25 c156 -32 311 -98 442 -186 145 -98
316 -296 401 -464 231 -462 136 -1016 -237 -1378 -101 -98 -169 -148 -277
-205 -304 -162 -726 -185 -1039 -58 -99 41 -239 130 -335 215 -85 75 -104 97
-191 213 -139 189 -222 474 -210 723 9 201 40 324 126 500 176 357 529 612
910 656 96 11 324 2 410 -16z"/>
<path d="M3250 5325 l-395 -395 -187 187 -186 186 -86 -86 c-47 -47 -86 -89
-86 -94 0 -8 547 -546 560 -551 5 -2 -117 122 -271 275 l-279 277 77 78 c43
43 82 78 87 78 5 0 79 -71 165 -157 86 -87 169 -169 183 -182 l27 -24 399 402
c219 220 396 401 393 401 -4 0 -184 -178 -401 -395z"/>
<path d="M3670 5708 c0 -4 37 -43 82 -87 l82 -79 -480 -476 c-263 -261 -474
-476 -469 -476 6 0 224 214 485 475 l475 475 -88 87 c-48 49 -87 85 -87 81z"/>
<path d="M10580 5660 c-268 -47 -446 -293 -427 -589 19 -296 242 -501 543
-501 149 0 273 48 365 140 47 47 104 143 95 159 -3 4 -44 26 -92 47 l-87 38
-16 -23 c-74 -106 -142 -143 -259 -144 -59 0 -89 5 -130 23 -132 57 -203 248
-157 424 19 72 76 160 124 191 115 75 288 47 376 -60 20 -25 43 -45 51 -45 22
0 174 100 174 115 0 27 -123 146 -181 176 -106 53 -248 72 -379 49z m243 -15
c107 -22 172 -57 243 -130 35 -36 64 -71 64 -78 -1 -6 -37 -34 -81 -60 l-80
-49 -59 57 c-69 65 -108 84 -194 92 -132 12 -229 -47 -289 -175 -50 -108 -48
-268 4 -368 65 -122 176 -176 322 -155 92 13 167 65 216 149 7 11 26 6 95 -23
47 -21 86 -39 86 -42 0 -20 -53 -98 -99 -144 -120 -119 -294 -165 -481 -125
-188 41 -314 152 -376 332 -37 105 -39 262 -6 369 81 264 348 411 635 350z"/>
<path d="M12479 5656 c-95 -25 -198 -106 -239 -186 -49 -96 -32 -226 39 -297
53 -53 118 -83 301 -137 127 -38 160 -52 183 -76 60 -66 12 -153 -99 -179 -33
-8 -35 -9 -11 -10 72 -3 147 63 147 128 0 43 -20 75 -58 95 -15 8 -93 33 -172
57 -157 45 -229 76 -273 118 -104 96 -92 281 25 386 127 115 342 139 514 56
61 -30 102 -63 131 -107 19 -29 25 -23 -79 -84 -36 -22 -71 -40 -76 -40 -5 0
-21 15 -36 34 -36 48 -97 69 -185 64 -51 -3 -78 -9 -98 -24 -33 -24 -53 -77
-43 -113 8 -31 59 -67 114 -81 228 -58 343 -106 395 -165 86 -99 76 -274 -23
-382 -54 -60 -130 -103 -215 -123 -66 -16 -196 -8 -266 16 -58 20 -139 70
-176 111 -30 32 -65 90 -58 96 8 8 151 87 156 87 3 0 23 -20 45 -45 47 -53 95
-80 158 -89 48 -6 32 2 -47 23 -30 8 -56 27 -95 70 l-55 58 -69 -38 c-38 -22
-77 -42 -86 -45 -37 -13 -17 -59 57 -135 89 -92 214 -135 365 -126 236 13 396
173 377 376 -6 72 -45 149 -93 186 -50 38 -149 78 -274 111 -163 42 -200 65
-200 124 0 63 56 100 150 100 76 0 119 -19 165 -73 l34 -40 90 54 c58 35 91
60 91 71 0 25 -63 92 -117 123 -101 60 -278 83 -394 51z"/>
<path d="M5013 5622 c5 -27 116 -333 202 -557 18 -49 57 -153 85 -230 28 -77
59 -162 69 -190 l18 -50 144 -3 145 -3 63 183 c95 274 164 469 235 661 35 94
67 182 70 195 l7 22 -130 0 -130 0 -41 -132 c-44 -141 -184 -579 -203 -638 -7
-19 -16 -38 -22 -42 -6 -5 -6 -11 1 -18 10 -10 95 240 234 688 l41 132 118 0
118 0 -22 -62 c-13 -35 -49 -133 -80 -218 -57 -154 -135 -373 -222 -628 l-46
-133 -136 3 -136 3 -19 55 c-26 75 -203 554 -287 777 -38 101 -69 187 -69 193
0 7 42 10 122 8 l122 -3 82 -260 c105 -332 174 -535 174 -514 0 9 -31 113 -69
230 -38 118 -94 291 -124 384 l-54 170 -133 3 -133 3 6 -29z"/>
<path d="M6160 5120 l0 -530 375 0 375 0 0 100 0 100 -260 0 -260 0 0 120 0
120 198 2 197 3 0 95 0 95 -197 3 -198 2 0 115 0 115 248 2 247 3 3 93 3 92
-366 0 -365 0 0 -530z m720 435 l0 -85 -250 0 -250 0 0 -127 0 -128 196 0 196
0 1 -84 0 -85 -197 1 -196 0 0 -133 0 -134 260 0 260 0 0 -90 0 -90 -365 0
-365 0 0 520 0 520 355 0 355 0 0 -85z"/>
<path d="M7027 5643 c-4 -3 -7 -242 -7 -530 l0 -524 113 3 112 3 0 210 1 210
-3 -207 -3 -208 -105 0 -105 0 0 521 0 521 243 -4 c224 -3 246 -5 300 -27 73
-29 150 -102 184 -177 22 -49 25 -66 21 -138 -7 -124 -58 -200 -165 -248 l-44
-19 20 -32 c11 -18 69 -113 130 -212 l111 -180 -122 -3 c-67 -1 -125 1 -129 5
-4 4 -29 49 -56 98 -76 138 -165 300 -169 304 -2 2 -7 2 -10 -1 -3 -4 5 -23
19 -45 13 -21 48 -81 77 -133 29 -52 71 -128 94 -167 l41 -73 126 0 c69 0 128
3 132 6 3 4 -1 21 -10 38 -20 40 -176 293 -214 348 -25 36 -24 45 5 52 48 12
123 83 152 143 40 83 40 185 2 263 -31 64 -80 118 -138 155 -73 46 -134 55
-375 55 -122 0 -225 -3 -228 -7z"/>
<path d="M7987 5643 c-4 -3 -7 -242 -7 -530 l0 -523 115 0 115 0 0 530 0 530
-108 0 c-60 0 -112 -3 -115 -7z m213 -523 l0 -520 -105 0 -105 0 0 520 0 520
105 0 105 0 0 -520z"/>
<path d="M8440 5120 l0 -531 118 3 117 3 3 217 2 217 153 3 152 3 0 95 0 95
-152 3 -153 3 0 114 0 115 220 0 220 0 0 95 0 95 -340 0 -340 0 0 -530z m670
435 l0 -85 -220 0 -220 0 0 -125 0 -125 150 0 150 0 0 -87 0 -88 -150 0 -150
0 0 -222 0 -223 -110 0 -110 0 0 520 0 520 330 0 330 0 0 -85z"/>
<path d="M9197 5643 c-4 -3 12 -40 34 -82 90 -164 292 -517 305 -532 11 -12
14 -63 14 -228 l0 -212 122 3 122 3 1 215 1 215 74 125 c40 69 98 168 128 220
30 52 65 111 77 130 37 59 75 130 75 140 0 6 -56 10 -137 10 l-138 0 -37 -78
c-20 -42 -65 -137 -101 -210 l-65 -134 -82 169 c-45 92 -91 187 -102 211 l-19
42 -133 0 c-73 0 -136 -3 -139 -7z m367 -220 c56 -117 103 -213 106 -213 3 0
52 97 109 215 l105 215 128 0 129 0 -12 -22 c-13 -25 -13 -25 -213 -364 l-136
-232 0 -211 0 -211 -110 0 -110 0 0 208 c0 159 -3 212 -14 227 -27 40 -325
565 -331 585 -6 20 -4 21 121 18 l127 -3 101 -212z"/>
<path d="M11539 5623 c-5 -16 -23 -62 -39 -103 -189 -484 -237 -608 -289 -746
-34 -89 -61 -167 -61 -173 0 -7 38 -11 119 -11 l118 0 27 78 c14 42 37 104 50
137 l25 60 186 3 c143 2 186 0 190 -10 2 -7 25 -71 51 -141 l46 -128 127 3
c77 2 125 7 124 13 -1 6 -30 80 -63 165 -107 273 -312 814 -322 848 l-9 32
-135 0 -134 0 -11 -27z m279 -15 c6 -18 46 -127 90 -243 44 -115 107 -282 140
-370 34 -88 80 -205 102 -260 23 -55 44 -108 47 -117 5 -16 -5 -18 -110 -18
l-115 0 -10 28 c-12 28 -80 218 -87 240 -4 10 -49 12 -202 10 l-197 -3 -50
-137 -49 -138 -109 0 c-59 0 -108 2 -108 4 0 8 132 352 217 566 47 118 103
262 125 320 22 58 44 115 49 128 8 21 13 22 133 22 l125 0 9 -32z"/>
<path d="M11648 5369 c-14 -41 -46 -129 -71 -196 l-45 -123 143 0 143 0 -35
93 c-19 50 -52 139 -72 196 l-38 103 -25 -73z m94 -147 c27 -74 52 -140 55
-148 4 -12 -16 -14 -121 -14 -69 0 -126 1 -126 3 0 1 11 31 24 67 13 36 41
113 62 172 36 98 40 105 48 80 5 -15 31 -87 58 -160z"/>
<path d="M13130 5555 l0 -95 150 0 c113 0 150 -3 151 -12 0 -7 1 -202 2 -433
l2 -420 118 -3 117 -3 0 436 0 435 155 0 155 0 0 95 0 95 -425 0 -425 0 0 -95z
m840 0 l0 -85 -155 0 -155 0 0 -435 0 -435 -107 0 -108 0 2 435 3 435 -155 0
-155 0 0 85 0 85 415 0 415 0 0 -85z"/>
<path d="M7240 5315 l0 -157 103 4 c117 5 154 19 187 73 29 47 30 126 3 164
-38 50 -79 65 -190 69 l-103 4 0 -157z m195 134 c21 -6 54 -26 73 -45 33 -33
34 -37 30 -94 -7 -100 -65 -139 -205 -140 l-83 0 0 145 0 145 73 0 c39 0 90
-5 112 -11z"/>
</g>
</svg>
